<svg version="1.1" id="Layer_1"
                           xmlns="http://www.w3.org/2000/svg" xmlns:xlink="http://www.w3.org/1999/xlink" width="50"
                           height="25" x="0px" y="0px" viewBox="0 0 604.6 273.9"
                           style="enable-background:new 0 0 604.6 273.9;" xml:space="preserve">
                           <style type="text/css">
                              .st0 {
                              fill: #010101;
                              }
                              .st1 {
                              fill: #231F20;
                              }
                           </style>
                           <path class="st0" d="M57.3,121.4c2.7-2.2,5.7-3.4,9.2-3.4c3.9,0,7.3,1.4,10.1,4.2c2.8,2.8,4.2,6.2,4.2,10.1c0,3.9-1.4,7.3-4.2,10.1
                              c-2.8,2.8-6.2,4.2-10.1,4.2c-3.9,0-7.3-1.4-10.1-4.2s-4.2-6.2-4.2-10.1V90.8c0-0.3,0.1-0.4,0.4-0.4c0.3,0,0.5,0.1,0.5,0.4v41.5
                              c0,3.7,1.3,6.8,3.9,9.4c2.6,2.6,5.8,3.9,9.4,3.9c3.7,0,6.8-1.3,9.5-3.9c2.6-2.6,3.9-5.8,3.9-9.4s-1.3-6.8-3.9-9.5
                              c-2.6-2.6-5.8-3.9-9.5-3.9c-3.3,0-6.2,1.1-8.7,3.2c-0.2,0.2-0.4,0.2-0.6,0C57.1,121.8,57.1,121.6,57.3,121.4z" />
                           <path class="st0"
                              d="M96,122.1c2.8-2.8,6.2-4.2,10.1-4.2c3.9,0,7.3,1.4,10.1,4.2c2.8,2.8,4.2,6.2,4.2,10.1v13.9
                              c0,0.3-0.2,0.4-0.5,0.4c-0.3,0-0.4-0.1-0.4-0.4v-13.9c0-3.7-1.3-6.8-3.9-9.4c-2.6-2.6-5.8-3.9-9.5-3.9c-3.7,0-6.8,1.3-9.4,3.9
                              c-2.6,2.6-3.9,5.8-3.9,9.5c0,3.7,1.3,6.8,3.9,9.4c2.6,2.6,5.8,3.9,9.4,3.9c3.3,0,6.2-1.1,8.7-3.2c0.2-0.2,0.4-0.2,0.6,0
                              c0.2,0.2,0.2,0.4,0,0.6c-2.7,2.3-5.7,3.4-9.2,3.4c-3.9,0-7.3-1.4-10.1-4.2s-4.2-6.2-4.2-10.1C91.8,128.3,93.2,124.9,96,122.1z" />
                           <path class="st0" d="M132.2,146.1c0,0.3-0.2,0.4-0.5,0.4c-0.3,0-0.4-0.1-0.4-0.4v-27.7c0-0.3,0.1-0.4,0.4-0.4c0.3,0,0.5,0.1,0.5,0.4
                              V146.1z M136.4,121.4c2.6-2.3,5.7-3.4,9.2-3.4c0.3,0,0.5,0.2,0.5,0.5c0,0.3-0.2,0.4-0.5,0.4c-3.3,0-6.2,1.1-8.7,3.2
                              c-0.1,0.1-0.2,0.1-0.3,0.1c-0.1,0-0.2-0.1-0.4-0.2C136.1,121.8,136.1,121.6,136.4,121.4z" />
                           <path class="st0" d="M175.4,138.9c0.2-0.3,0.4-0.3,0.6-0.2c0.3,0.2,0.3,0.4,0.2,0.6c-1.3,2.2-3,3.9-5.3,5.2
                              c-2.2,1.3-4.6,1.9-7.2,1.9c-3.9,0-7.3-1.4-10.1-4.2c-2.8-2.8-4.2-6.2-4.2-10.1c0-3.9,1.4-7.3,4.2-10.1c2.8-2.8,6.2-4.2,10.1-4.2
                              c2.6,0,5,0.6,7.2,1.9c2.2,1.3,4,3,5.3,5.2c0.2,0.3,0.1,0.5-0.2,0.6c-0.3,0.1-0.5,0.1-0.6-0.2c-1.2-2.1-2.8-3.7-4.9-4.9
                              c-2.1-1.2-4.3-1.8-6.7-1.8c-3.7,0-6.9,1.3-9.5,4c-2.6,2.6-3.9,5.8-3.9,9.5c0,3.7,1.3,6.9,3.9,9.5c2.6,2.6,5.8,3.9,9.5,3.9
                              c2.4,0,4.6-0.6,6.7-1.8C172.6,142.6,174.2,141,175.4,138.9z" />
                           <path class="st0" d="M187.8,122.1c2.8-2.8,6.2-4.2,10.1-4.2c3.9,0,7.3,1.4,10.1,4.2c2.8,2.8,4.2,6.2,4.2,10.1c0,0.3-0.1,0.5-0.4,0.5
                              h-27.2c0.1,3.6,1.5,6.6,4.1,9.2c2.6,2.5,5.7,3.8,9.3,3.8c4,0,7.4-1.5,10-4.5c0.2-0.2,0.4-0.2,0.6,0c0.2,0.2,0.2,0.4,0,0.6
                              c-2.8,3.2-6.4,4.8-10.7,4.8c-3.9,0-7.3-1.4-10.1-4.2c-2.8-2.8-4.2-6.2-4.2-10.1C183.6,128.3,185,124.9,187.8,122.1z M211.3,131.8
                              c-0.1-3.6-1.5-6.7-4.1-9.2c-2.6-2.5-5.7-3.8-9.3-3.8c-3.6,0-6.7,1.3-9.3,3.8c-2.6,2.5-4,5.6-4.1,9.2H211.3z" />
                           <path class="st0" d="M221.7,90.3c0.3,0,0.5,0.1,0.5,0.4v55.3c0,0.3-0.2,0.4-0.5,0.4c-0.3,0-0.4-0.1-0.4-0.4V90.8
                              C221.3,90.5,221.4,90.3,221.7,90.3z" />
                           <path class="st0"
                              d="M235.6,122.1c2.8-2.8,6.2-4.2,10.1-4.2c3.9,0,7.3,1.4,10.1,4.2c2.8,2.8,4.2,6.2,4.2,10.1
                              c0,3.9-1.4,7.3-4.2,10.1c-2.8,2.8-6.2,4.2-10.1,4.2c-3.9,0-7.3-1.4-10.1-4.2c-2.8-2.8-4.2-6.1-4.2-10.1
                              C231.4,128.3,232.8,124.9,235.6,122.1z M236.2,141.7c2.6,2.6,5.8,4,9.4,4c3.7,0,6.9-1.3,9.5-4c2.6-2.6,3.9-5.8,3.9-9.4
                              s-1.3-6.8-3.9-9.5c-2.6-2.6-5.8-3.9-9.5-3.9c-3.7,0-6.8,1.3-9.4,3.9c-2.6,2.6-3.9,5.8-3.9,9.5S233.6,139.1,236.2,141.7z" />
                           <path class="st0" d="M271.1,118.4c0-0.3,0.1-0.5,0.4-0.5c0.3,0,0.5,0.2,0.5,0.5v27.7c0,0.3-0.2,0.4-0.5,0.4c-0.3,0-0.4-0.1-0.4-0.4
                              V118.4z M299.7,146.1c0,0.3-0.2,0.4-0.5,0.4c-0.3,0-0.4-0.1-0.4-0.4v-13.8c0-3.7-1.3-6.8-3.9-9.4c-2.6-2.6-5.8-3.9-9.5-3.9
                              c-3.3,0-6.2,1.1-8.7,3.2c-0.2,0.2-0.4,0.2-0.6,0c-0.2-0.2-0.2-0.4,0.1-0.6c2.6-2.3,5.7-3.4,9.2-3.4c3.9,0,7.3,1.4,10.1,4.2
                              c2.8,2.8,4.2,6.2,4.2,10.1V146.1z" />
                           <path class="st0"
                              d="M314.9,122.1c2.8-2.8,6.2-4.2,10.1-4.2c3.9,0,7.3,1.4,10.1,4.2c2.8,2.8,4.2,6.2,4.2,10.1v13.9
                              c0,0.3-0.2,0.4-0.5,0.4c-0.3,0-0.4-0.1-0.4-0.4v-13.9c0-3.7-1.3-6.8-3.9-9.4c-2.6-2.6-5.8-3.9-9.5-3.9c-3.7,0-6.8,1.3-9.4,3.9
                              c-2.6,2.6-3.9,5.8-3.9,9.5c0,3.7,1.3,6.8,3.9,9.4c2.6,2.6,5.8,3.9,9.4,3.9c3.3,0,6.2-1.1,8.7-3.2c0.2-0.2,0.4-0.2,0.6,0
                              c0.2,0.2,0.2,0.4,0,0.6c-2.7,2.3-5.7,3.4-9.2,3.4c-3.9,0-7.3-1.4-10.1-4.2s-4.2-6.2-4.2-10.1C310.7,128.3,312.1,124.9,314.9,122.1z" />
                           <path class="st0" d="M358,146.2c0,0.4-0.1,0.8-0.4,1.1c-0.3,0.3-0.6,0.4-1.1,0.4c-0.4,0-0.8-0.1-1.1-0.4s-0.4-0.6-0.4-1.1V93.1
                              c0-0.4,0.1-0.8,0.4-1.1s0.6-0.4,1.1-0.4c0.4,0,0.8,0.1,1.1,0.4c0.3,0.3,0.4,0.6,0.4,1.1V146.2z M360.3,121.7c-0.3,0.3-0.5,0.6-0.5,1
                              c0,0.4,0.1,0.8,0.4,1.1c0.3,0.3,0.7,0.5,1.1,0.5c0.4,0,0.7-0.1,1-0.4c2.2-1.9,4.7-2.8,7.6-2.8c3.2,0,6,1.2,8.3,3.5
                              c2.3,2.3,3.4,5.1,3.4,8.3v13.3c0,0.4,0.2,0.8,0.5,1.1c0.3,0.3,0.6,0.4,1,0.4c0.4,0,0.8-0.1,1.1-0.4s0.4-0.6,0.4-1.1V133
                              c0-4.1-1.4-7.6-4.3-10.4c-2.9-2.9-6.4-4.3-10.4-4.3C366.2,118.2,363,119.4,360.3,121.7z" />
                           <path class="st0" d="M393.3,122.5c2.9-2.9,6.4-4.3,10.4-4.3s7.6,1.4,10.4,4.3c2.9,2.9,4.3,6.4,4.3,10.4c0,4.1-1.4,7.6-4.3,10.4
                              c-2.9,2.9-6.4,4.3-10.4,4.3s-7.6-1.4-10.4-4.3c-2.9-2.9-4.3-6.4-4.3-10.4C389,128.9,390.4,125.4,393.3,122.5z M395.4,141.3
                              c2.3,2.3,5.1,3.4,8.3,3.4c3.2,0,6-1.1,8.3-3.4c2.3-2.3,3.4-5.1,3.4-8.3c0-3.3-1.1-6.1-3.4-8.4c-2.3-2.3-5.1-3.4-8.3-3.4
                              c-3.3,0-6,1.1-8.3,3.4c-2.3,2.3-3.5,5.1-3.5,8.4C391.9,136.2,393.1,139,395.4,141.3z" />
                           <path class="st0" d="M429,129.9c1.5,0.8,3.1,1.3,4.8,1.7c2,0.4,3.8,1.1,5.6,2c3.2,1.6,4.8,3.7,4.8,6.1c0,2.2-0.7,4-2.2,5.4
                              c-1.9,1.8-4.7,2.7-8.2,2.7c-0.1,0-0.2,0-0.3,0s-0.2,0-0.3,0c-3.6,0-6.3-0.9-8.3-2.8c-1.4-1.4-2.2-3.2-2.2-5.4c0-1,0.5-1.5,1.5-1.5
                              c1,0,1.5,0.5,1.5,1.5c0,1.3,0.4,2.4,1.3,3.2c1.4,1.3,3.4,2,6.2,2h0.5c2.8,0,4.9-0.6,6.2-1.9c0.8-0.8,1.3-1.9,1.3-3.2
                              c0-1.2-1.1-2.4-3.2-3.5c-1.5-0.8-3.1-1.3-4.8-1.7c-2-0.4-3.8-1-5.6-1.9c-3.2-1.6-4.8-3.7-4.8-6.2c0-2.2,0.7-4,2.2-5.4
                              c1.9-1.9,4.7-2.8,8.3-2.8h0.5c3.6,0,6.3,0.9,8.3,2.8c1.4,1.4,2.2,3.2,2.2,5.4c0,1-0.5,1.5-1.5,1.5c-1,0-1.5-0.5-1.5-1.5
                              c0-1.3-0.4-2.4-1.3-3.2c-1.4-1.3-3.4-2-6.2-2h-0.4c-2.8,0-4.9,0.7-6.2,2c-0.8,0.8-1.3,1.9-1.3,3.2
                              C425.8,127.6,426.8,128.8,429,129.9z" />
                           <path class="st0"
                              d="M450.1,112.6V103c0-0.3,0.1-0.6,0.4-0.9c0.3-0.2,0.6-0.4,1.1-0.4c0.4,0,0.7,0.1,1.1,0.4
                              c0.3,0.2,0.4,0.5,0.4,0.9v9.6h11.8c0.4,0,0.8,0.1,1.1,0.4c0.3,0.2,0.4,0.5,0.4,0.8c0,0.3-0.1,0.6-0.4,0.9c-0.3,0.3-0.6,0.4-1.1,0.4
                              h-11.8v31.4c0,0.3-0.1,0.6-0.4,0.9c-0.3,0.2-0.7,0.4-1.1,0.4c-0.4,0-0.8-0.1-1.1-0.4c-0.3-0.2-0.4-0.5-0.4-0.9v-31.4" />
                           <path class="st0" d="M463.3,122.5c2.9-2.9,6.4-4.3,10.4-4.3s7.6,1.4,10.4,4.3c2.9,2.9,4.3,6.4,4.3,10.4c0,1-0.5,1.5-1.5,1.5h-25
                              c0.4,2.9,1.7,5.4,3.9,7.4c2.2,2,4.9,3,7.9,3c3.5,0,6.5-1.3,8.8-4c0.3-0.3,0.7-0.5,1.1-0.5c0.4,0,0.7,0.1,1,0.4
                              c0.3,0.3,0.4,0.6,0.5,1c0,0.4-0.1,0.8-0.4,1.1c-2.9,3.3-6.6,4.9-11,4.9c-4.1,0-7.6-1.4-10.4-4.3c-2.9-2.9-4.3-6.4-4.3-10.4
                              C459,128.9,460.4,125.4,463.3,122.5z M485.5,131.5c-0.4-2.9-1.7-5.4-3.9-7.4s-4.8-2.9-7.8-2.9s-5.6,1-7.9,2.9
                              c-2.2,2-3.5,4.4-3.9,7.4H485.5z" />
                           <path class="st0" d="M497.5,129.9c1.5,0.8,3.1,1.3,4.8,1.7c2,0.4,3.8,1.1,5.6,2c3.2,1.6,4.8,3.7,4.8,6.1c0,2.2-0.7,4-2.2,5.4
                              c-1.9,1.8-4.7,2.7-8.2,2.7c-0.1,0-0.2,0-0.3,0s-0.2,0-0.3,0c-3.6,0-6.3-0.9-8.3-2.8c-1.4-1.4-2.2-3.2-2.2-5.4c0-1,0.5-1.5,1.5-1.5
                              c1,0,1.5,0.5,1.5,1.5c0,1.3,0.4,2.4,1.3,3.2c1.4,1.3,3.4,2,6.2,2h0.5c2.8,0,4.9-0.6,6.2-1.9c0.8-0.8,1.3-1.9,1.3-3.2
                              c0-1.2-1.1-2.4-3.2-3.5c-1.5-0.8-3.1-1.3-4.8-1.7c-2-0.4-3.8-1-5.6-1.9c-3.2-1.6-4.8-3.7-4.8-6.2c0-2.2,0.7-4,2.2-5.4
                              c1.9-1.9,4.7-2.8,8.3-2.8h0.5c3.6,0,6.3,0.9,8.3,2.8c1.4,1.4,2.2,3.2,2.2,5.4c0,1-0.5,1.5-1.5,1.5s-1.5-0.5-1.5-1.5
                              c0-1.3-0.4-2.4-1.3-3.2c-1.4-1.3-3.4-2-6.2-2h-0.4c-2.8,0-4.9,0.7-6.2,2c-0.8,0.8-1.3,1.9-1.3,3.2
                              C494.3,127.6,495.4,128.8,497.5,129.9z" />
                           <path class="st0" d="M522.2,129.9c1.5,0.8,3.1,1.3,4.8,1.7c2,0.4,3.8,1.1,5.6,2c3.2,1.6,4.8,3.7,4.8,6.1c0,2.2-0.7,4-2.2,5.4
                              c-1.9,1.8-4.7,2.7-8.2,2.7c-0.1,0-0.2,0-0.3,0c-0.1,0-0.2,0-0.3,0c-3.6,0-6.3-0.9-8.3-2.8c-1.4-1.4-2.2-3.2-2.2-5.4
                              c0-1,0.5-1.5,1.5-1.5s1.5,0.5,1.5,1.5c0,1.3,0.4,2.4,1.3,3.2c1.4,1.3,3.4,2,6.2,2h0.5c2.8,0,4.9-0.6,6.2-1.9
                              c0.8-0.8,1.3-1.9,1.3-3.2c0-1.2-1.1-2.4-3.2-3.5c-1.5-0.8-3.1-1.3-4.8-1.7c-2-0.4-3.8-1-5.6-1.9c-3.2-1.6-4.8-3.7-4.8-6.2
                              c0-2.2,0.7-4,2.2-5.4c1.9-1.9,4.7-2.8,8.3-2.8h0.5c3.6,0,6.3,0.9,8.3,2.8c1.4,1.4,2.2,3.2,2.2,5.4c0,1-0.5,1.5-1.5,1.5
                              s-1.5-0.5-1.5-1.5c0-1.3-0.4-2.4-1.3-3.2c-1.4-1.3-3.4-2-6.2-2h-0.4c-2.8,0-4.9,0.7-6.2,2c-0.8,0.8-1.3,1.9-1.3,3.2
                              C518.9,127.6,520,128.8,522.2,129.9z" />
                           <g>
                              <g>
                                 <g>
                                    <g>
                                       <path class="st0"
                                          d="M22.2,155.7c88.5,35.2,184.6,51.6,279.7,52.1c31.2,0.2,62.7-1.1,93.5-6.2c8.6-1.4,17.3-3.1,25.5-6.1
                                          c2.7-1,8.3-2.8,8.6-6.3c0.3-4.1-5.7-7.8-8.6-9.5c-7.3-4.3-15.6-7-23.6-9.4c-17.6-5.3-35.7-8.5-53.7-12.6
                                          c-0.3,0.3-0.6,0.6-0.9,0.9c61.9,11.1,126,11.6,187.8-0.3c17.3-3.3,34.4-7.7,51.2-13.1c0.9-0.3,0.7-1.1-0.2-0.8
                                          c-58.9,18.8-121.6,24.9-183.2,20.3c-18.4-1.4-36.6-3.7-54.8-7c-0.5-0.1-1.7,0.7-0.9,0.9c14.9,3.4,30,6.2,44.8,10.1
                                          c8,2.1,16.1,4.4,23.7,7.6c5.2,2.1,11.4,4.8,15,9.3c4,5.1-0.5,7.1-5.1,8.9c-7.9,3.1-16.4,4.7-24.7,6.1c-29.2,5-59,6.3-88.6,6.4
                                          c-41.2,0.1-82.5-3.1-123.3-9.2c-55.1-8.3-109.4-22.1-161.2-42.7C22.9,154.7,21.6,155.4,22.2,155.7L22.2,155.7z" />
                                    </g>
                                 </g>
                              </g>
                              <path class="st1" d="M353.3,160.6c-4.7-1,97,13.2,104,24c11.7,17.9-136.7,25.2-153.3,23.2c-6-0.8,115.8-5.3,121.8-18.4
                                 C430.2,179.8,374,165.4,353.3,160.6z" />
                           </g>
                        </svg>